<svg xmlns="http://www.w3.org/2000/svg" x="0px" y="0px" width="50" height="50" viewBox="0 0 48 48">
<path d="M 9.5 9 C 7.5850452 9 6 10.585045 6 12.5 L 6 31.5 C 6 33.414955 7.5850452 35 9.5 35 L 38.5 35 C 40.414955 35 42 33.414955 42 31.5 L 42 12.5 C 42 10.585045 40.414955 9 38.5 9 L 9.5 9 z M 9.5 12 L 38.5 12 C 38.795045 12 39 12.204955 39 12.5 L 39 31.5 C 39 31.795045 38.795045 32 38.5 32 L 9.5 32 C 9.2049548 32 9 31.795045 9 31.5 L 9 12.5 C 9 12.204955 9.2049548 12 9.5 12 z M 25.521484 13.978516 A 1.50015 1.50015 0 0 0 24.039062 15.162109 L 21.039062 28.162109 A 1.50015 1.50015 0 1 0 23.960938 28.837891 L 26.960938 15.837891 A 1.50015 1.50015 0 0 0 25.521484 13.978516 z M 17.503906 16.984375 A 1.50015 1.50015 0 0 0 16.361328 17.523438 L 13.361328 21.023438 A 1.50015 1.50015 0 0 0 13.361328 22.976562 L 16.361328 26.476562 A 1.50015 1.50015 0 1 0 18.638672 24.523438 L 16.476562 22 L 18.638672 19.476562 A 1.50015 1.50015 0 0 0 17.503906 16.984375 z M 30.451172 16.984375 A 1.50015 1.50015 0 0 0 29.361328 19.476562 L 31.523438 22 L 29.361328 24.523438 A 1.50015 1.50015 0 1 0 31.638672 26.476562 L 34.638672 22.976562 A 1.50015 1.50015 0 0 0 34.638672 21.023438 L 31.638672 17.523438 A 1.50015 1.50015 0 0 0 30.451172 16.984375 z M 3.5 36 A 1.50015 1.50015 0 1 0 3.5 39 L 44.5 39 A 1.50015 1.50015 0 1 0 44.5 36 L 3.5 36 z"></path>
</svg>